# xmcd
#
# Track frame offsets: 
#        150
#        12844
#        26391
#        39519
#        54649
#        69103
#        80649
#        92621
#        106019
#        117171
#        129547
#        142368
#        155097
#        166812
#        178712
#        191440
#        202350
#        215368
#
# Disc length: 3035 seconds
#
# Revision: 1
# Processed by: cddbd v1.5.2PL0 Copyright (c) Steve Scherf et al.
# Submitted via: ExactAudioCopy v0.99pb4
#
DISCID=f80bd912
DTITLE=Various Artist - The Story Of Rhythm and Blues [CD5)
DYEAR=1900
DGENRE=Rhythm and Blues
TTITLE0=Amos Milburn - Chicken Shack Boogie 
TTITLE1=Roosevelt Sykes and his Honey Drippers - The Honeydripper 
TTITLE2=Lonnie Lyon - Down In The Groovy 
TTITLE3=Erskine Hawkins and his Orchestra - After Hours 
TTITLE4=Todd Rhodes and His Orchestra - Bell Boy Boogie 
TTITLE5=Pee Wee King - Ten Gallon Boogie 
TTITLE6=Muddy Waters - Got My Mojo Working 
TTITLE7=Saunders King and His Rhythm - Swingin' 
TTITLE8=Hal Singer - Beef Stew 
TTITLE9=Wynonie Harris - Good Rockin' Tonight 
TTITLE10=Spade Cooley - Oklahoma Stomp 
TTITLE11=Meade Lux Lewis - Honky Tonk Train 
TTITLE12=Albina Jones - Hey Little Boy 
TTITLE13=Lowell Fulson - I Want To See My Baby 
TTITLE14=Amos Milburn - Hold Me 
TTITLE15=Howlin' Wolf - Highway Man 
TTITLE16=T-Bone Walker - I'm Gonna Find My Baby 
TTITLE17=Louis Jordan - Saxa-Woogie 
EXTD=(c) Digimode Entertainment Ltd. UK 
EXTT0=Milburn 
EXTT1=Liggins 
EXTT2=Lyon 
EXTT3=Parish - Bruce - Feyne 
EXTT4=Rhodes 
EXTT5=King - Stewert 
EXTT6=Morganfield 
EXTT7=Oliver - Moore 
EXTT8=Singer 
EXTT9=Brown 
EXTT10=Cooley - Cooley - De Paul - Soldi 
EXTT11=Lewis 
EXTT12=Unknown 
EXTT13=Fulson 
EXTT14=Millburn - Cullum 
EXTT15=Burnett 
EXTT16=Craine - Walker 
EXTT17=Jordan 
PLAYORDER=
